<svg width="183" height="39" viewBox="0 0 183 39" fill="none" xmlns="http://www.w3.org/2000/svg">
<path d="M30.5908 9.06934H19.9219V38H11.3525V9.06934H0.878906V2.45312H30.5908V9.06934ZM44.6289 38C44.3359 37.4629 44.0755 36.6735 43.8477 35.6318C42.334 37.5361 40.2181 38.4883 37.5 38.4883C35.0098 38.4883 32.8939 37.7396 31.1523 36.2422C29.4108 34.7285 28.54 32.8324 28.54 30.5537C28.54 27.6891 29.598 25.5244 31.7139 24.0596C33.8298 22.5947 36.9059 21.8623 40.9424 21.8623H43.4814V20.4707C43.4814 18.0456 42.4316 16.833 40.332 16.833C38.3789 16.833 37.4023 17.7933 37.4023 19.7139H29.1748C29.1748 17.1585 30.2572 15.0833 32.4219 13.4883C34.6029 11.8932 37.3779 11.0957 40.7471 11.0957C44.1162 11.0957 46.7773 11.9176 48.7305 13.5615C50.6836 15.2054 51.6846 17.4596 51.7334 20.3242V32.0186C51.766 34.4437 52.1403 36.2992 52.8564 37.585V38H44.6289ZM39.4775 32.6289C40.5029 32.6289 41.3493 32.4092 42.0166 31.9697C42.7002 31.5303 43.1885 31.0339 43.4814 30.4805V26.2568H41.0889C38.2243 26.2568 36.792 27.5426 36.792 30.1143C36.792 30.863 37.0443 31.4733 37.5488 31.9453C38.0534 32.401 38.6963 32.6289 39.4775 32.6289ZM64.9902 38H56.7383V0.5H64.9902V38ZM84.9609 38C84.668 37.4629 84.4076 36.6735 84.1797 35.6318C82.666 37.5361 80.5501 38.4883 77.832 38.4883C75.3418 38.4883 73.2259 37.7396 71.4844 36.2422C69.7428 34.7285 68.8721 32.8324 68.8721 30.5537C68.8721 27.6891 69.93 25.5244 72.0459 24.0596C74.1618 22.5947 77.238 21.8623 81.2744 21.8623H83.8135V20.4707C83.8135 18.0456 82.7637 16.833 80.6641 16.833C78.7109 16.833 77.7344 17.7933 77.7344 19.7139H69.5068C69.5068 17.1585 70.5892 15.0833 72.7539 13.4883C74.9349 11.8932 77.71 11.0957 81.0791 11.0957C84.4482 11.0957 87.1094 11.9176 89.0625 13.5615C91.0156 15.2054 92.0166 17.4596 92.0654 20.3242V32.0186C92.098 34.4437 92.4723 36.2992 93.1885 37.585V38H84.9609ZM79.8096 32.6289C80.835 32.6289 81.6813 32.4092 82.3486 31.9697C83.0322 31.5303 83.5205 31.0339 83.8135 30.4805V26.2568H81.4209C78.5563 26.2568 77.124 27.5426 77.124 30.1143C77.124 30.863 77.3763 31.4733 77.8809 31.9453C78.3854 32.401 79.0283 32.6289 79.8096 32.6289ZM104.199 11.584L104.468 14.6846C106.291 12.292 108.805 11.0957 112.012 11.0957C114.762 11.0957 116.813 11.9176 118.164 13.5615C119.531 15.2054 120.239 17.6794 120.288 20.9834V38H112.036V21.3252C112.036 19.9906 111.768 19.014 111.23 18.3955C110.693 17.7607 109.717 17.4434 108.301 17.4434C106.689 17.4434 105.493 18.0781 104.712 19.3477V38H96.4844V11.584H104.199Z" fill="white"/>
<path d="M146.46 24.1084H150.073V30.4561H146.46V38H138.232V30.4561H124.487L123.999 25.4268L138.232 2.52637V2.45312H146.46V24.1084ZM131.836 24.1084H138.232V13.1709L137.72 14.001L131.836 24.1084ZM182.08 2.45312V25.7197C182.08 28.3564 181.519 30.6432 180.396 32.5801C179.272 34.5007 177.661 35.9655 175.562 36.9746C173.462 37.9837 170.98 38.4883 168.115 38.4883C163.786 38.4883 160.376 37.3652 157.886 35.1191C155.396 32.873 154.126 29.7969 154.077 25.8906V2.45312H162.695V26.0615C162.793 29.9515 164.6 31.8965 168.115 31.8965C169.889 31.8965 171.232 31.4082 172.144 30.4316C173.055 29.4551 173.511 27.8682 173.511 25.6709V2.45312H182.08Z" fill="#F6C24F"/>
</svg>
