<svg width="185" height="36" viewBox="0 0 185 36" fill="none" xmlns="http://www.w3.org/2000/svg">
<path d="M15.6 35C8.976 35 5.664 31.848 5.664 25.544V16.328H1.92C1.568 16.328 1.264 16.216 1.008 15.992C0.784 15.768 0.672 15.48 0.672 15.128V11.24C0.672 10.888 0.784 10.6 1.008 10.376C1.264 10.152 1.568 10.04 1.92 10.04H5.664V2.12C5.664 1.768 5.776 1.48 6 1.256C6.256 1.032 6.544 0.919998 6.864 0.919998H12.432C12.784 0.919998 13.072 1.032 13.296 1.256C13.52 1.48 13.632 1.768 13.632 2.12V10.04H19.632C19.984 10.04 20.272 10.152 20.496 10.376C20.752 10.6 20.88 10.888 20.88 11.24V15.128C20.88 15.48 20.752 15.768 20.496 15.992C20.272 16.216 19.984 16.328 19.632 16.328H13.632V24.872C13.632 27.24 14.544 28.424 16.368 28.424H20.064C20.416 28.424 20.704 28.536 20.928 28.76C21.152 28.984 21.264 29.272 21.264 29.624V33.8C21.264 34.12 21.152 34.408 20.928 34.664C20.704 34.888 20.416 35 20.064 35H15.6ZM32.7263 35.48C31.0303 35.48 29.4783 35.16 28.0703 34.52C26.6943 33.848 25.6063 32.952 24.8063 31.832C24.0383 30.68 23.6543 29.416 23.6543 28.04C23.6543 25.832 24.5503 24.056 26.3423 22.712C28.1663 21.368 30.6623 20.44 33.8303 19.928L39.8303 19.016V18.344C39.8303 17.128 39.5743 16.232 39.0623 15.656C38.5503 15.08 37.6863 14.792 36.4703 14.792C35.7343 14.792 35.1263 14.92 34.6463 15.176C34.1663 15.432 33.6703 15.784 33.1583 16.232C32.7103 16.616 32.3743 16.872 32.1503 17C32.0543 17.256 31.8783 17.384 31.6223 17.384H26.3903C26.0703 17.384 25.7983 17.288 25.5742 17.096C25.3823 16.872 25.3023 16.616 25.3343 16.328C25.3663 15.464 25.7823 14.504 26.5823 13.448C27.4143 12.392 28.6623 11.48 30.3263 10.712C32.0223 9.944 34.1023 9.56 36.5663 9.56C40.5023 9.56 43.4143 10.44 45.3023 12.2C47.1903 13.928 48.1343 16.264 48.1343 19.208V33.8C48.1343 34.12 48.0223 34.408 47.7983 34.664C47.5743 34.888 47.2863 35 46.9343 35H41.3663C41.0463 35 40.7583 34.888 40.5023 34.664C40.2783 34.408 40.1663 34.12 40.1663 33.8V32.12C39.4623 33.112 38.4703 33.928 37.1903 34.568C35.9423 35.176 34.4543 35.48 32.7263 35.48ZM34.9823 30.008C36.4543 30.008 37.6383 29.528 38.5343 28.568C39.4623 27.608 39.9263 26.2 39.9263 24.344V23.672L35.8463 24.392C32.9663 24.904 31.5263 25.912 31.5263 27.416C31.5263 28.216 31.8623 28.856 32.5343 29.336C33.2063 29.784 34.0223 30.008 34.9823 30.008ZM54.7508 35C54.4308 35 54.1428 34.888 53.8867 34.664C53.6628 34.408 53.5508 34.12 53.5508 33.8V2.12C53.5508 1.768 53.6628 1.48 53.8867 1.256C54.1428 1.032 54.4308 0.919998 54.7508 0.919998H60.4148C60.7668 0.919998 61.0548 1.032 61.2788 1.256C61.5028 1.48 61.6148 1.768 61.6148 2.12V33.8C61.6148 34.152 61.5028 34.44 61.2788 34.664C61.0548 34.888 60.7668 35 60.4148 35H54.7508ZM74.7731 35.48C73.0771 35.48 71.5251 35.16 70.1171 34.52C68.7411 33.848 67.6531 32.952 66.8531 31.832C66.0851 30.68 65.7011 29.416 65.7011 28.04C65.7011 25.832 66.5971 24.056 68.3891 22.712C70.2131 21.368 72.7091 20.44 75.8771 19.928L81.8771 19.016V18.344C81.8771 17.128 81.6211 16.232 81.1091 15.656C80.5971 15.08 79.7331 14.792 78.5171 14.792C77.7811 14.792 77.1731 14.92 76.6931 15.176C76.2131 15.432 75.7171 15.784 75.2051 16.232C74.7571 16.616 74.4211 16.872 74.1971 17C74.1011 17.256 73.9251 17.384 73.6691 17.384H68.4371C68.1171 17.384 67.8451 17.288 67.6211 17.096C67.4291 16.872 67.3491 16.616 67.3811 16.328C67.4131 15.464 67.8291 14.504 68.6291 13.448C69.4611 12.392 70.7091 11.48 72.3731 10.712C74.0691 9.944 76.1491 9.56 78.6131 9.56C82.5491 9.56 85.4611 10.44 87.3491 12.2C89.2371 13.928 90.1811 16.264 90.1811 19.208V33.8C90.1811 34.12 90.0691 34.408 89.8451 34.664C89.6211 34.888 89.3331 35 88.9811 35H83.4131C83.0931 35 82.8051 34.888 82.5491 34.664C82.3251 34.408 82.2131 34.12 82.2131 33.8V32.12C81.5091 33.112 80.5171 33.928 79.2371 34.568C77.9891 35.176 76.5011 35.48 74.7731 35.48ZM77.0291 30.008C78.5011 30.008 79.6851 29.528 80.5811 28.568C81.5091 27.608 81.9731 26.2 81.9731 24.344V23.672L77.8931 24.392C75.0131 24.904 73.5731 25.912 73.5731 27.416C73.5731 28.216 73.9091 28.856 74.5811 29.336C75.2531 29.784 76.0691 30.008 77.0291 30.008ZM96.7976 35C96.4456 35 96.1576 34.888 95.9336 34.664C95.7096 34.44 95.5976 34.152 95.5976 33.8V11.24C95.5976 10.888 95.7096 10.6 95.9336 10.376C96.1576 10.152 96.4456 10.04 96.7976 10.04H102.318C102.67 10.04 102.958 10.152 103.182 10.376C103.438 10.6 103.566 10.888 103.566 11.24V13.064C104.43 12.008 105.534 11.16 106.878 10.52C108.254 9.88 109.806 9.56 111.534 9.56C114.35 9.56 116.638 10.52 118.398 12.44C120.158 14.328 121.038 16.984 121.038 20.408V33.8C121.038 34.12 120.926 34.408 120.702 34.664C120.478 34.888 120.19 35 119.838 35H113.79C113.47 35 113.182 34.888 112.926 34.664C112.702 34.408 112.59 34.12 112.59 33.8V20.696C112.59 19.192 112.222 18.04 111.486 17.24C110.75 16.408 109.694 15.992 108.318 15.992C106.974 15.992 105.918 16.408 105.15 17.24C104.382 18.04 103.998 19.192 103.998 20.696V33.8C103.998 34.12 103.886 34.408 103.662 34.664C103.438 34.888 103.15 35 102.798 35H96.7976Z" fill="white"/>
<path d="M142.281 35C141.961 35 141.673 34.888 141.417 34.664C141.193 34.408 141.081 34.12 141.081 33.8V28.376H126.153C125.801 28.376 125.513 28.264 125.289 28.04C125.065 27.816 124.953 27.528 124.953 27.176V22.616C124.953 22.136 125.129 21.64 125.481 21.128L139.449 2.216C139.897 1.672 140.489 1.4 141.225 1.4H148.233C148.585 1.4 148.873 1.512 149.097 1.736C149.321 1.96 149.433 2.248 149.433 2.6V21.224H153.657C154.041 21.224 154.345 21.352 154.569 21.608C154.793 21.832 154.905 22.104 154.905 22.424V27.176C154.905 27.528 154.793 27.816 154.569 28.04C154.345 28.264 154.057 28.376 153.705 28.376H149.433V33.8C149.433 34.12 149.321 34.408 149.097 34.664C148.873 34.888 148.585 35 148.233 35H142.281ZM141.273 21.56V10.232L133.209 21.56H141.273ZM168.375 35.48C165.559 35.48 163.287 34.536 161.559 32.648C159.831 30.728 158.967 28.056 158.967 24.632V11.24C158.967 10.888 159.079 10.6 159.303 10.376C159.527 10.152 159.815 10.04 160.167 10.04H166.167C166.519 10.04 166.807 10.152 167.031 10.376C167.287 10.6 167.415 10.888 167.415 11.24V24.344C167.415 27.48 168.807 29.048 171.591 29.048C172.935 29.048 173.991 28.632 174.759 27.8C175.527 26.968 175.911 25.816 175.911 24.344V11.24C175.911 10.888 176.023 10.6 176.247 10.376C176.503 10.152 176.791 10.04 177.111 10.04H183.111C183.463 10.04 183.751 10.152 183.975 10.376C184.199 10.6 184.311 10.888 184.311 11.24V33.8C184.311 34.12 184.199 34.408 183.975 34.664C183.751 34.888 183.463 35 183.111 35H177.543C177.223 35 176.935 34.888 176.679 34.664C176.455 34.408 176.343 34.12 176.343 33.8V31.976C174.679 34.312 172.023 35.48 168.375 35.48Z" fill="#FF3776"/>
</svg>
