<svg width="54" height="37" viewBox="0 0 54 37" fill="none" xmlns="http://www.w3.org/2000/svg">
<path d="M22.9014 22.1084H26.5146V28.4561H22.9014V36H14.6738V28.4561H0.928711L0.44043 23.4268L14.6738 0.526367V0.453125H22.9014V22.1084ZM8.27734 22.1084H14.6738V11.1709L14.1611 12.001L8.27734 22.1084ZM45.9971 33.1436C44.2555 35.3734 41.9036 36.4883 38.9414 36.4883C36.0443 36.4883 33.847 35.6501 32.3496 33.9736C30.8685 32.2809 30.1279 29.8558 30.1279 26.6982V9.58398H38.3555V26.7471C38.3555 29.0094 39.4541 30.1406 41.6514 30.1406C43.5394 30.1406 44.8822 29.4652 45.6797 28.1143V9.58398H53.9561V36H46.2412L45.9971 33.1436Z" fill="#F6C24F"/>
</svg>
