<svg width="187" height="36" viewBox="0 0 187 36" fill="none" xmlns="http://www.w3.org/2000/svg">
<path d="M10.952 35C10.632 35 10.344 34.888 10.088 34.664C9.864 34.408 9.752 34.12 9.752 33.8V8.936H1.208C0.888 8.936 0.6 8.824 0.344 8.6C0.12 8.344 0.00800008 8.056 0.00800008 7.736V2.6C0.00800008 2.248 0.12 1.96 0.344 1.736C0.6 1.512 0.888 1.4 1.208 1.4H27.032C27.384 1.4 27.672 1.512 27.896 1.736C28.12 1.96 28.232 2.248 28.232 2.6V7.736C28.232 8.088 28.12 8.376 27.896 8.6C27.672 8.824 27.384 8.936 27.032 8.936H18.488V33.8C18.488 34.12 18.376 34.408 18.152 34.664C17.928 34.888 17.64 35 17.288 35H10.952ZM35.3356 35.48C33.6396 35.48 32.0876 35.16 30.6796 34.52C29.3036 33.848 28.2156 32.952 27.4156 31.832C26.6476 30.68 26.2636 29.416 26.2636 28.04C26.2636 25.832 27.1596 24.056 28.9516 22.712C30.7756 21.368 33.2716 20.44 36.4396 19.928L42.4396 19.016V18.344C42.4396 17.128 42.1836 16.232 41.6716 15.656C41.1596 15.08 40.2956 14.792 39.0796 14.792C38.3436 14.792 37.7356 14.92 37.2556 15.176C36.7756 15.432 36.2796 15.784 35.7676 16.232C35.3196 16.616 34.9836 16.872 34.7596 17C34.6636 17.256 34.4876 17.384 34.2316 17.384H28.9996C28.6796 17.384 28.4076 17.288 28.1836 17.096C27.9916 16.872 27.9116 16.616 27.9436 16.328C27.9756 15.464 28.3916 14.504 29.1916 13.448C30.0236 12.392 31.2716 11.48 32.9356 10.712C34.6316 9.944 36.7116 9.56 39.1756 9.56C43.1116 9.56 46.0236 10.44 47.9116 12.2C49.7996 13.928 50.7436 16.264 50.7436 19.208V33.8C50.7436 34.12 50.6316 34.408 50.4076 34.664C50.1836 34.888 49.8956 35 49.5436 35H43.9756C43.6556 35 43.3676 34.888 43.1116 34.664C42.8876 34.408 42.7756 34.12 42.7756 33.8V32.12C42.0716 33.112 41.0796 33.928 39.7996 34.568C38.5516 35.176 37.0636 35.48 35.3356 35.48ZM37.5916 30.008C39.0636 30.008 40.2476 29.528 41.1436 28.568C42.0716 27.608 42.5356 26.2 42.5356 24.344V23.672L38.4556 24.392C35.5756 24.904 34.1356 25.912 34.1356 27.416C34.1356 28.216 34.4716 28.856 35.1436 29.336C35.8156 29.784 36.6316 30.008 37.5916 30.008ZM57.3601 35C57.0401 35 56.7521 34.888 56.4961 34.664C56.2721 34.408 56.1601 34.12 56.1601 33.8V2.12C56.1601 1.768 56.2721 1.48 56.4961 1.256C56.7521 1.032 57.0401 0.919998 57.3601 0.919998H63.0241C63.3761 0.919998 63.6641 1.032 63.8881 1.256C64.1121 1.48 64.2241 1.768 64.2241 2.12V33.8C64.2241 34.152 64.1121 34.44 63.8881 34.664C63.6641 34.888 63.3761 35 63.0241 35H57.3601ZM77.3825 35.48C75.6865 35.48 74.1345 35.16 72.7265 34.52C71.3505 33.848 70.2625 32.952 69.4625 31.832C68.6945 30.68 68.3105 29.416 68.3105 28.04C68.3105 25.832 69.2065 24.056 70.9985 22.712C72.8225 21.368 75.3185 20.44 78.4865 19.928L84.4865 19.016V18.344C84.4865 17.128 84.2305 16.232 83.7185 15.656C83.2065 15.08 82.3425 14.792 81.1265 14.792C80.3905 14.792 79.7825 14.92 79.3025 15.176C78.8225 15.432 78.3265 15.784 77.8145 16.232C77.3665 16.616 77.0305 16.872 76.8065 17C76.7105 17.256 76.5345 17.384 76.2785 17.384H71.0465C70.7265 17.384 70.4545 17.288 70.2305 17.096C70.0385 16.872 69.9585 16.616 69.9905 16.328C70.0225 15.464 70.4385 14.504 71.2385 13.448C72.0705 12.392 73.3185 11.48 74.9825 10.712C76.6785 9.944 78.7585 9.56 81.2225 9.56C85.1585 9.56 88.0705 10.44 89.9585 12.2C91.8465 13.928 92.7905 16.264 92.7905 19.208V33.8C92.7905 34.12 92.6785 34.408 92.4545 34.664C92.2305 34.888 91.9425 35 91.5905 35H86.0225C85.7025 35 85.4145 34.888 85.1585 34.664C84.9345 34.408 84.8225 34.12 84.8225 33.8V32.12C84.1185 33.112 83.1265 33.928 81.8465 34.568C80.5985 35.176 79.1105 35.48 77.3825 35.48ZM79.6385 30.008C81.1105 30.008 82.2945 29.528 83.1905 28.568C84.1185 27.608 84.5825 26.2 84.5825 24.344V23.672L80.5025 24.392C77.6225 24.904 76.1825 25.912 76.1825 27.416C76.1825 28.216 76.5185 28.856 77.1905 29.336C77.8625 29.784 78.6785 30.008 79.6385 30.008ZM99.407 35C99.055 35 98.767 34.888 98.543 34.664C98.319 34.44 98.207 34.152 98.207 33.8V11.24C98.207 10.888 98.319 10.6 98.543 10.376C98.767 10.152 99.055 10.04 99.407 10.04H104.927C105.279 10.04 105.567 10.152 105.791 10.376C106.047 10.6 106.175 10.888 106.175 11.24V13.064C107.039 12.008 108.143 11.16 109.487 10.52C110.863 9.88 112.415 9.56 114.143 9.56C116.959 9.56 119.247 10.52 121.007 12.44C122.767 14.328 123.647 16.984 123.647 20.408V33.8C123.647 34.12 123.535 34.408 123.311 34.664C123.087 34.888 122.799 35 122.447 35H116.399C116.079 35 115.791 34.888 115.535 34.664C115.311 34.408 115.199 34.12 115.199 33.8V20.696C115.199 19.192 114.831 18.04 114.095 17.24C113.359 16.408 112.303 15.992 110.927 15.992C109.583 15.992 108.527 16.408 107.759 17.24C106.991 18.04 106.607 19.192 106.607 20.696V33.8C106.607 34.12 106.495 34.408 106.271 34.664C106.047 34.888 105.759 35 105.407 35H99.407Z" fill="white"/>
<path d="M144.891 35C144.571 35 144.283 34.888 144.027 34.664C143.803 34.408 143.691 34.12 143.691 33.8V28.376H128.763C128.411 28.376 128.123 28.264 127.899 28.04C127.675 27.816 127.563 27.528 127.563 27.176V22.616C127.563 22.136 127.739 21.64 128.091 21.128L142.059 2.216C142.507 1.672 143.099 1.4 143.835 1.4H150.843C151.195 1.4 151.483 1.512 151.707 1.736C151.931 1.96 152.043 2.248 152.043 2.6V21.224H156.267C156.651 21.224 156.955 21.352 157.179 21.608C157.403 21.832 157.515 22.104 157.515 22.424V27.176C157.515 27.528 157.403 27.816 157.179 28.04C156.955 28.264 156.667 28.376 156.315 28.376H152.043V33.8C152.043 34.12 151.931 34.408 151.707 34.664C151.483 34.888 151.195 35 150.843 35H144.891ZM143.883 21.56V10.232L135.819 21.56H143.883ZM170.984 35.48C168.168 35.48 165.896 34.536 164.168 32.648C162.44 30.728 161.576 28.056 161.576 24.632V11.24C161.576 10.888 161.688 10.6 161.912 10.376C162.136 10.152 162.424 10.04 162.776 10.04H168.776C169.128 10.04 169.416 10.152 169.64 10.376C169.896 10.6 170.024 10.888 170.024 11.24V24.344C170.024 27.48 171.416 29.048 174.2 29.048C175.544 29.048 176.6 28.632 177.368 27.8C178.136 26.968 178.52 25.816 178.52 24.344V11.24C178.52 10.888 178.632 10.6 178.856 10.376C179.112 10.152 179.4 10.04 179.72 10.04H185.72C186.072 10.04 186.36 10.152 186.584 10.376C186.808 10.6 186.92 10.888 186.92 11.24V33.8C186.92 34.12 186.808 34.408 186.584 34.664C186.36 34.888 186.072 35 185.72 35H180.152C179.832 35 179.544 34.888 179.288 34.664C179.064 34.408 178.952 34.12 178.952 33.8V31.976C177.288 34.312 174.632 35.48 170.984 35.48Z" fill="#FF0077"/>
</svg>
