<svg width="168" height="36" viewBox="0 0 168 36" fill="none" xmlns="http://www.w3.org/2000/svg">
<g filter="url(#filter0_b_1_3)">
<path d="M13.296 35C8.24 35 5.712 32.184 5.712 26.552V13.88H1.968C1.648 13.88 1.376 13.784 1.152 13.592C0.96 13.368 0.864 13.096 0.864 12.776V11.144C0.864 10.824 0.96 10.568 1.152 10.376C1.376 10.152 1.648 10.04 1.968 10.04H5.712V2.024C5.712 1.704 5.808 1.448 6 1.256C6.224 1.032 6.496 0.919998 6.816 0.919998H9.072C9.392 0.919998 9.648 1.032 9.84 1.256C10.064 1.448 10.176 1.704 10.176 2.024V10.04H16.128C16.448 10.04 16.704 10.152 16.896 10.376C17.12 10.568 17.232 10.824 17.232 11.144V12.776C17.232 13.096 17.12 13.368 16.896 13.592C16.704 13.784 16.448 13.88 16.128 13.88H10.176V26.216C10.176 27.816 10.448 29.032 10.992 29.864C11.536 30.664 12.432 31.064 13.68 31.064H16.608C16.928 31.064 17.184 31.176 17.376 31.4C17.6 31.592 17.712 31.848 17.712 32.168V33.896C17.712 34.216 17.6 34.488 17.376 34.712C17.184 34.904 16.928 35 16.608 35H13.296ZM29.262 35.48C27.694 35.48 26.238 35.16 24.894 34.52C23.55 33.88 22.478 33.016 21.678 31.928C20.91 30.808 20.526 29.576 20.526 28.232C20.526 26.12 21.39 24.392 23.118 23.048C24.878 21.672 27.246 20.776 30.222 20.36L37.374 19.352V17.96C37.374 14.696 35.502 13.064 31.758 13.064C30.35 13.064 29.198 13.368 28.302 13.976C27.406 14.552 26.734 15.24 26.286 16.04C26.19 16.328 26.062 16.536 25.902 16.664C25.774 16.792 25.582 16.856 25.326 16.856H23.262C22.974 16.856 22.718 16.76 22.494 16.568C22.302 16.344 22.206 16.088 22.206 15.8C22.238 15.032 22.59 14.168 23.262 13.208C23.966 12.216 25.038 11.368 26.478 10.664C27.918 9.928 29.694 9.56 31.806 9.56C35.39 9.56 37.966 10.408 39.534 12.104C41.102 13.768 41.886 15.848 41.886 18.344V33.896C41.886 34.216 41.774 34.488 41.55 34.712C41.358 34.904 41.102 35 40.782 35H38.574C38.254 35 37.982 34.904 37.758 34.712C37.566 34.488 37.47 34.216 37.47 33.896V31.832C36.766 32.856 35.742 33.72 34.398 34.424C33.054 35.128 31.342 35.48 29.262 35.48ZM30.27 31.88C32.35 31.88 34.046 31.208 35.358 29.864C36.702 28.488 37.374 26.52 37.374 23.96V22.616L31.806 23.432C29.534 23.752 27.822 24.296 26.67 25.064C25.518 25.8 24.942 26.744 24.942 27.896C24.942 29.176 25.47 30.168 26.526 30.872C27.582 31.544 28.83 31.88 30.27 31.88ZM49.9384 35C49.6184 35 49.3464 34.904 49.1224 34.712C48.9304 34.488 48.8344 34.216 48.8344 33.896V2.024C48.8344 1.704 48.9304 1.448 49.1224 1.256C49.3464 1.032 49.6184 0.919998 49.9384 0.919998H52.1944C52.5144 0.919998 52.7704 1.032 52.9624 1.256C53.1864 1.448 53.2984 1.704 53.2984 2.024V33.896C53.2984 34.216 53.1864 34.488 52.9624 34.712C52.7704 34.904 52.5144 35 52.1944 35H49.9384ZM67.4183 35.48C65.8503 35.48 64.3943 35.16 63.0503 34.52C61.7063 33.88 60.6343 33.016 59.8343 31.928C59.0663 30.808 58.6823 29.576 58.6823 28.232C58.6823 26.12 59.5463 24.392 61.2743 23.048C63.0343 21.672 65.4023 20.776 68.3783 20.36L75.5303 19.352V17.96C75.5303 14.696 73.6583 13.064 69.9143 13.064C68.5063 13.064 67.3543 13.368 66.4583 13.976C65.5623 14.552 64.8903 15.24 64.4423 16.04C64.3463 16.328 64.2183 16.536 64.0583 16.664C63.9303 16.792 63.7383 16.856 63.4823 16.856H61.4183C61.1303 16.856 60.8743 16.76 60.6503 16.568C60.4583 16.344 60.3623 16.088 60.3623 15.8C60.3943 15.032 60.7463 14.168 61.4183 13.208C62.1223 12.216 63.1943 11.368 64.6343 10.664C66.0743 9.928 67.8503 9.56 69.9623 9.56C73.5463 9.56 76.1223 10.408 77.6903 12.104C79.2583 13.768 80.0423 15.848 80.0423 18.344V33.896C80.0423 34.216 79.9303 34.488 79.7063 34.712C79.5143 34.904 79.2583 35 78.9383 35H76.7303C76.4103 35 76.1383 34.904 75.9143 34.712C75.7223 34.488 75.6263 34.216 75.6263 33.896V31.832C74.9223 32.856 73.8983 33.72 72.5543 34.424C71.2103 35.128 69.4983 35.48 67.4183 35.48ZM68.4263 31.88C70.5063 31.88 72.2023 31.208 73.5143 29.864C74.8583 28.488 75.5303 26.52 75.5303 23.96V22.616L69.9623 23.432C67.6903 23.752 65.9783 24.296 64.8263 25.064C63.6743 25.8 63.0983 26.744 63.0983 27.896C63.0983 29.176 63.6263 30.168 64.6823 30.872C65.7383 31.544 66.9863 31.88 68.4263 31.88ZM88.0466 35C87.7266 35 87.4546 34.904 87.2306 34.712C87.0386 34.488 86.9426 34.216 86.9426 33.896V11.144C86.9426 10.824 87.0386 10.568 87.2306 10.376C87.4546 10.152 87.7266 10.04 88.0466 10.04H90.3026C90.6226 10.04 90.8786 10.152 91.0706 10.376C91.2946 10.568 91.4066 10.824 91.4066 11.144V13.256C92.3346 12.072 93.4226 11.16 94.6706 10.52C95.9506 9.88 97.5346 9.56 99.4226 9.56C102.495 9.56 104.879 10.552 106.575 12.536C108.303 14.488 109.167 17.096 109.167 20.36V33.896C109.167 34.216 109.055 34.488 108.831 34.712C108.639 34.904 108.383 35 108.063 35H105.663C105.343 35 105.071 34.904 104.847 34.712C104.655 34.488 104.559 34.216 104.559 33.896V20.6C104.559 18.328 103.999 16.568 102.879 15.32C101.791 14.072 100.207 13.448 98.1266 13.448C96.1106 13.448 94.5106 14.088 93.3266 15.368C92.1426 16.616 91.5506 18.36 91.5506 20.6V33.896C91.5506 34.216 91.4386 34.488 91.2146 34.712C91.0226 34.904 90.7666 35 90.4466 35H88.0466Z" fill="black"/>
<path d="M131.748 35C131.428 35 131.156 34.904 130.932 34.712C130.74 34.488 130.644 34.216 130.644 33.896V26.984H115.092C114.772 26.984 114.5 26.888 114.276 26.696C114.084 26.472 113.988 26.2 113.988 25.88V23.96C113.988 23.48 114.164 23 114.516 22.52L128.916 2.216C129.076 1.96 129.316 1.768 129.636 1.64C129.956 1.48 130.308 1.4 130.692 1.4H134.148C134.468 1.4 134.724 1.512 134.916 1.736C135.14 1.928 135.252 2.184 135.252 2.504V22.808H139.572C139.892 22.808 140.164 22.92 140.388 23.144C140.612 23.336 140.724 23.592 140.724 23.912V25.88C140.724 26.2 140.612 26.472 140.388 26.696C140.196 26.888 139.94 26.984 139.62 26.984H135.252V33.896C135.252 34.216 135.14 34.488 134.916 34.712C134.724 34.904 134.468 35 134.148 35H131.748ZM130.692 22.904V6.44L119.124 22.904H130.692ZM155.177 35.48C152.137 35.48 149.785 34.504 148.121 32.552C146.457 30.568 145.625 27.944 145.625 24.68V11.144C145.625 10.824 145.721 10.568 145.913 10.376C146.137 10.152 146.409 10.04 146.729 10.04H149.129C149.449 10.04 149.705 10.152 149.897 10.376C150.121 10.568 150.233 10.824 150.233 11.144V24.44C150.233 29.208 152.313 31.592 156.473 31.592C158.489 31.592 160.089 30.968 161.273 29.72C162.457 28.44 163.049 26.68 163.049 24.44V11.144C163.049 10.824 163.145 10.568 163.337 10.376C163.561 10.152 163.833 10.04 164.153 10.04H166.552C166.873 10.04 167.129 10.152 167.321 10.376C167.513 10.568 167.609 10.824 167.609 11.144V33.896C167.609 34.216 167.513 34.488 167.321 34.712C167.129 34.904 166.873 35 166.552 35H164.297C163.977 35 163.705 34.904 163.481 34.712C163.289 34.488 163.193 34.216 163.193 33.896V31.784C162.297 33 161.209 33.928 159.929 34.568C158.649 35.176 157.065 35.48 155.177 35.48Z" fill="#FF3776"/>
<path d="M5.712 13.88H7.712V11.88H5.712V13.88ZM1.152 13.592L-0.366513 14.8936L-0.26639 15.0104L-0.14958 15.1105L1.152 13.592ZM1.152 10.376L2.56621 11.7902L2.56622 11.7902L1.152 10.376ZM5.712 10.04V12.04H7.712V10.04H5.712ZM6 1.256L7.41421 2.67021L7.41422 2.67021L6 1.256ZM9.84 1.256L8.32148 2.55758L8.42161 2.67439L8.53842 2.77451L9.84 1.256ZM10.176 10.04H8.176V12.04H10.176V10.04ZM16.896 10.376L15.3775 11.6776L15.4776 11.7944L15.5944 11.8945L16.896 10.376ZM16.896 13.592L18.3102 15.0062L18.3102 15.0062L16.896 13.592ZM10.176 13.88V11.88H8.176V13.88H10.176ZM10.992 29.864L9.31806 30.9585L9.32797 30.9736L9.33815 30.9886L10.992 29.864ZM17.376 31.4L15.8575 32.7016L15.9576 32.8184L16.0744 32.9185L17.376 31.4ZM17.376 34.712L18.7902 36.1262L18.7902 36.1262L17.376 34.712ZM13.296 33C11.1354 33 9.86498 32.4082 9.09627 31.5519C8.29071 30.6546 7.712 29.1098 7.712 26.552H3.712C3.712 29.6262 4.39729 32.3054 6.11973 34.2241C7.87902 36.1838 10.4006 37 13.296 37V33ZM7.712 26.552V13.88H3.712V26.552H7.712ZM5.712 11.88H1.968V15.88H5.712V11.88ZM1.968 11.88C2.01008 11.88 2.08975 11.8868 2.18964 11.922C2.29184 11.9581 2.38247 12.0125 2.45358 12.0735L-0.14958 15.1105C0.468672 15.6404 1.21415 15.88 1.968 15.88V11.88ZM2.67051 12.2904C2.73147 12.3615 2.78591 12.4522 2.82198 12.5544C2.85724 12.6542 2.864 12.7339 2.864 12.776H-1.136C-1.136 13.5298 -0.896445 14.2753 -0.366513 14.8936L2.67051 12.2904ZM2.864 12.776V11.144H-1.136V12.776H2.864ZM2.864 11.144C2.864 11.1837 2.85788 11.283 2.80866 11.4142C2.75713 11.5517 2.67353 11.6829 2.56621 11.7902L-0.262212 8.96178C-0.895685 9.59526 -1.136 10.3955 -1.136 11.144H2.864ZM2.56622 11.7902C2.50601 11.8504 2.41195 11.9213 2.2855 11.9734C2.15946 12.0253 2.04613 12.04 1.968 12.04V8.04C1.12362 8.04 0.341115 8.35846 -0.262216 8.96179L2.56622 11.7902ZM1.968 12.04H5.712V8.04H1.968V12.04ZM7.712 10.04V2.024H3.712V10.04H7.712ZM7.712 2.024C7.712 2.06373 7.70588 2.16298 7.65666 2.29425C7.60513 2.43166 7.52153 2.5629 7.41421 2.67021L4.58579 -0.158216C3.95232 0.475255 3.712 1.27549 3.712 2.024H7.712ZM7.41422 2.67021C7.35401 2.73042 7.25995 2.80129 7.1335 2.85335C7.00746 2.90525 6.89413 2.92 6.816 2.92V-1.08C5.97162 -1.08 5.18911 -0.761545 4.58578 -0.158211L7.41422 2.67021ZM6.816 2.92H9.072V-1.08H6.816V2.92ZM9.072 2.92C8.99595 2.92 8.86128 2.90584 8.70236 2.83631C8.53914 2.7649 8.41024 2.66112 8.32148 2.55758L11.3585 -0.0455797C10.7516 -0.753644 9.91993 -1.08 9.072 -1.08V2.92ZM8.53842 2.77451C8.43487 2.68576 8.33109 2.55686 8.25969 2.39364C8.19016 2.23471 8.176 2.10004 8.176 2.024H12.176C12.176 1.17607 11.8496 0.344395 11.1416 -0.262515L8.53842 2.77451ZM8.176 2.024V10.04H12.176V2.024H8.176ZM10.176 12.04H16.128V8.04H10.176V12.04ZM16.128 12.04C16.052 12.04 15.9173 12.0258 15.7584 11.9563C15.5951 11.8849 15.4662 11.7811 15.3775 11.6776L18.4145 9.07442C17.8076 8.36636 16.9759 8.04 16.128 8.04V12.04ZM15.5944 11.8945C15.4909 11.8058 15.3871 11.6769 15.3157 11.5136C15.2462 11.3547 15.232 11.22 15.232 11.144H19.232C19.232 10.2961 18.9056 9.4644 18.1976 8.85748L15.5944 11.8945ZM15.232 11.144V12.776H19.232V11.144H15.232ZM15.232 12.776C15.232 12.6979 15.2467 12.5845 15.2986 12.4585C15.3507 12.3321 15.4216 12.238 15.4818 12.1778L18.3102 15.0062C18.9135 14.4029 19.232 13.6204 19.232 12.776H15.232ZM15.4818 12.1778C15.5891 12.0705 15.7203 11.9869 15.8578 11.9353C15.989 11.8861 16.0883 11.88 16.128 11.88V15.88C16.8765 15.88 17.6767 15.6397 18.3102 15.0062L15.4818 12.1778ZM16.128 11.88H10.176V15.88H16.128V11.88ZM8.176 13.88V26.216H12.176V13.88H8.176ZM8.176 26.216C8.176 27.9891 8.46793 29.6583 9.31806 30.9585L12.6659 28.7695C12.4281 28.4057 12.176 27.6429 12.176 26.216H8.176ZM9.33815 30.9886C10.3608 32.4925 11.9843 33.064 13.68 33.064V29.064C12.8797 29.064 12.7112 28.8355 12.6459 28.7394L9.33815 30.9886ZM13.68 33.064H16.608V29.064H13.68V33.064ZM16.608 33.064C16.532 33.064 16.3973 33.0498 16.2384 32.9803C16.0751 32.9089 15.9462 32.8051 15.8575 32.7016L18.8945 30.0984C18.2876 29.3904 17.4559 29.064 16.608 29.064V33.064ZM16.0744 32.9185C15.9709 32.8298 15.8671 32.7009 15.7957 32.5376C15.7262 32.3787 15.712 32.244 15.712 32.168H19.712C19.712 31.3201 19.3856 30.4884 18.6776 29.8815L16.0744 32.9185ZM15.712 32.168V33.896H19.712V32.168H15.712ZM15.712 33.896C15.712 33.8179 15.7267 33.7045 15.7786 33.5785C15.8307 33.4521 15.9016 33.358 15.9618 33.2978L18.7902 36.1262C19.3935 35.5229 19.712 34.7404 19.712 33.896H15.712ZM15.9618 33.2978C16.0691 33.1905 16.2003 33.1069 16.3378 33.0553C16.469 33.0061 16.5683 33 16.608 33V37C17.3565 37 18.1567 36.7597 18.7902 36.1262L15.9618 33.2978ZM16.608 33H13.296V37H16.608V33ZM24.894 34.52L25.7539 32.7143L25.7539 32.7143L24.894 34.52ZM21.678 31.928L20.0285 33.0591L20.0472 33.0862L20.0667 33.1128L21.678 31.928ZM23.118 23.048L24.3459 24.6267L24.3498 24.6236L23.118 23.048ZM30.222 20.36L30.4989 22.3407L30.5011 22.3404L30.222 20.36ZM37.374 19.352L37.6531 21.3324L39.374 21.0899V19.352H37.374ZM28.302 13.976L29.3835 15.6584L29.4044 15.6449L29.425 15.631L28.302 13.976ZM26.286 16.04L24.541 15.0628L24.4485 15.228L24.3886 15.4075L26.286 16.04ZM25.902 16.664L24.6526 15.1023L24.5661 15.1715L24.4878 15.2498L25.902 16.664ZM22.494 16.568L20.9755 17.8696L21.0756 17.9864L21.1924 18.0865L22.494 16.568ZM22.206 15.8L20.2077 15.7167L20.206 15.7584V15.8H22.206ZM23.262 13.208L21.631 12.0505L21.6235 12.0611L23.262 13.208ZM26.478 10.664L27.3564 12.4608L27.3724 12.453L27.3882 12.4449L26.478 10.664ZM39.534 12.104L38.0655 13.4617L38.0719 13.4687L38.0784 13.4756L39.534 12.104ZM41.55 34.712L42.9642 36.1262L42.9642 36.1262L41.55 34.712ZM37.758 34.712L36.2395 36.0136L36.3396 36.1304L36.4564 36.2305L37.758 34.712ZM37.47 31.832H39.47V25.3926L35.8219 30.6989L37.47 31.832ZM34.398 34.424L33.47 32.6523L33.47 32.6523L34.398 34.424ZM35.358 29.864L33.9272 28.4665L33.9269 28.4669L35.358 29.864ZM37.374 22.616H39.374V20.3015L37.084 20.6371L37.374 22.616ZM31.806 23.432L32.0849 25.4125L32.096 25.4109L31.806 23.432ZM26.67 25.064L27.7468 26.7494L27.7632 26.7389L27.7794 26.7281L26.67 25.064ZM26.526 30.872L25.4166 32.5361L25.4343 32.5479L25.4522 32.5593L26.526 30.872ZM29.262 33.48C27.9753 33.48 26.815 33.2196 25.7539 32.7143L24.0341 36.3257C25.661 37.1004 27.4127 37.48 29.262 37.48V33.48ZM25.7539 32.7143C24.6766 32.2013 23.8744 31.539 23.2893 30.7432L20.0667 33.1128C21.0816 34.493 22.4234 35.5587 24.0341 36.3257L25.7539 32.7143ZM23.3275 30.7969C22.7852 30.0062 22.526 29.1678 22.526 28.232H18.526C18.526 29.9842 19.0348 31.6098 20.0285 33.0591L23.3275 30.7969ZM22.526 28.232C22.526 26.763 23.0843 25.6079 24.3459 24.6267L21.8901 21.4693C19.6957 23.1761 18.526 25.477 18.526 28.232H22.526ZM24.3498 24.6236C25.7531 23.5265 27.7554 22.7242 30.4989 22.3407L29.9451 18.3793C26.7366 18.8278 24.0029 19.8175 21.8862 21.4724L24.3498 24.6236ZM30.5011 22.3404L37.6531 21.3324L37.0949 17.3716L29.9429 18.3796L30.5011 22.3404ZM39.374 19.352V17.96H35.374V19.352H39.374ZM39.374 17.96C39.374 15.9429 38.7829 14.0869 37.2843 12.7805C35.8381 11.5197 33.8761 11.064 31.758 11.064V15.064C33.3839 15.064 34.2299 15.4243 34.6557 15.7955C35.0291 16.1211 35.374 16.7131 35.374 17.96H39.374ZM31.758 11.064C30.0687 11.064 28.4928 11.4295 27.179 12.321L29.425 15.631C29.9032 15.3065 30.6313 15.064 31.758 15.064V11.064ZM27.2205 12.2936C26.0937 13.018 25.1732 13.9339 24.541 15.0628L28.031 17.0172C28.2948 16.5461 28.7183 16.086 29.3835 15.6584L27.2205 12.2936ZM24.3886 15.4075C24.378 15.4396 24.3816 15.4175 24.4147 15.3638C24.4488 15.3084 24.5221 15.2067 24.6526 15.1023L27.1514 18.2257C27.7246 17.7672 28.0206 17.1606 28.1834 16.6725L24.3886 15.4075ZM24.4878 15.2498C24.8671 14.8704 25.2737 14.856 25.326 14.856V18.856C25.8903 18.856 26.6809 18.7136 27.3162 18.0782L24.4878 15.2498ZM25.326 14.856H23.262V18.856H25.326V14.856ZM23.262 14.856C23.3449 14.856 23.4479 14.8707 23.5562 14.9113C23.6639 14.9517 23.7441 15.0054 23.7956 15.0495L21.1924 18.0865C21.7692 18.5809 22.484 18.856 23.262 18.856V14.856ZM24.0125 15.2664C24.0566 15.3179 24.1103 15.3981 24.1507 15.5058C24.1913 15.6141 24.206 15.7171 24.206 15.8H20.206C20.206 16.578 20.4811 17.2928 20.9755 17.8696L24.0125 15.2664ZM24.2043 15.8833C24.2141 15.6478 24.3408 15.1544 24.9005 14.3549L21.6235 12.0611C20.8392 13.1816 20.2619 14.4162 20.2077 15.7167L24.2043 15.8833ZM24.893 14.3655C25.3518 13.7191 26.1246 13.063 27.3564 12.4608L25.5996 8.86723C23.9514 9.673 22.5802 10.7129 21.631 12.0505L24.893 14.3655ZM27.3882 12.4449C28.4736 11.8901 29.9171 11.56 31.806 11.56V7.56C29.4709 7.56 27.3624 7.96589 25.5678 8.88313L27.3882 12.4449ZM31.806 11.56C35.1359 11.56 37.042 12.3547 38.0655 13.4617L41.0025 10.7463C38.89 8.46133 35.6441 7.56 31.806 7.56V11.56ZM38.0784 13.4756C39.2633 14.733 39.886 16.3069 39.886 18.344H43.886C43.886 15.3891 42.9407 12.803 40.9896 10.7324L38.0784 13.4756ZM39.886 18.344V33.896H43.886V18.344H39.886ZM39.886 33.896C39.886 33.8179 39.9007 33.7045 39.9526 33.5785C40.0047 33.4521 40.0756 33.358 40.1358 33.2978L42.9642 36.1262C43.5675 35.5229 43.886 34.7404 43.886 33.896H39.886ZM40.1358 33.2978C40.2431 33.1905 40.3743 33.1069 40.5118 33.0553C40.643 33.0061 40.7423 33 40.782 33V37C41.5305 37 42.3307 36.7597 42.9642 36.1262L40.1358 33.2978ZM40.782 33H38.574V37H40.782V33ZM38.574 33C38.6161 33 38.6958 33.0068 38.7956 33.042C38.8978 33.0781 38.9885 33.1325 39.0596 33.1935L36.4564 36.2305C37.0747 36.7604 37.8202 37 38.574 37V33ZM39.2765 33.4104C39.3375 33.4815 39.3919 33.5722 39.428 33.6744C39.4632 33.7742 39.47 33.8539 39.47 33.896H35.47C35.47 34.6499 35.7096 35.3953 36.2395 36.0136L39.2765 33.4104ZM39.47 33.896V31.832H35.47V33.896H39.47ZM35.8219 30.6989C35.3388 31.4016 34.5885 32.0664 33.47 32.6523L35.326 36.1957C36.8955 35.3736 38.1932 34.3104 39.1181 32.9651L35.8219 30.6989ZM33.47 32.6523C32.4986 33.1612 31.1327 33.48 29.262 33.48V37.48C31.5514 37.48 33.6094 37.0948 35.326 36.1957L33.47 32.6523ZM30.27 33.88C32.8251 33.88 35.0585 33.0339 36.7891 31.2611L33.9269 28.4669C33.0335 29.3821 31.8749 29.88 30.27 29.88V33.88ZM36.7888 31.2615C38.6056 29.4014 39.374 26.8642 39.374 23.96H35.374C35.374 26.1757 34.7984 27.5746 33.9272 28.4665L36.7888 31.2615ZM39.374 23.96V22.616H35.374V23.96H39.374ZM37.084 20.6371L31.516 21.4531L32.096 25.4109L37.664 24.5949L37.084 20.6371ZM31.5271 21.4515C29.1292 21.7893 27.0744 22.3907 25.5606 23.3999L27.7794 26.7281C28.5696 26.2013 29.9388 25.7147 32.0849 25.4125L31.5271 21.4515ZM25.5932 23.3786C23.9909 24.4023 22.942 25.9255 22.942 27.896H26.942C26.942 27.5625 27.0452 27.1977 27.7468 26.7494L25.5932 23.3786ZM22.942 27.896C22.942 29.8378 23.7985 31.4574 25.4166 32.5361L27.6354 29.2079C27.1415 28.8786 26.942 28.5142 26.942 27.896H22.942ZM25.4522 32.5593C26.8752 33.4648 28.5082 33.88 30.27 33.88V29.88C29.1518 29.88 28.2888 29.6232 27.5998 29.1847L25.4522 32.5593ZM49.1224 34.712L47.6039 36.0136L47.704 36.1304L47.8208 36.2305L49.1224 34.712ZM49.1224 1.256L50.5366 2.67021L50.5366 2.67021L49.1224 1.256ZM52.9624 1.256L51.4439 2.55758L51.544 2.67439L51.6608 2.77451L52.9624 1.256ZM52.9624 34.712L54.3766 36.1262L54.3766 36.1262L52.9624 34.712ZM49.9384 33C49.9805 33 50.0601 33.0068 50.16 33.042C50.2622 33.0781 50.3528 33.1325 50.424 33.1935L47.8208 36.2305C48.439 36.7604 49.1845 37 49.9384 37V33ZM50.6409 33.4104C50.7018 33.4815 50.7563 33.5722 50.7924 33.6744C50.8276 33.7742 50.8344 33.8539 50.8344 33.896H46.8344C46.8344 34.6498 47.0739 35.3953 47.6039 36.0136L50.6409 33.4104ZM50.8344 33.896V2.024H46.8344V33.896H50.8344ZM50.8344 2.024C50.8344 2.06373 50.8283 2.16298 50.779 2.29425C50.7275 2.43166 50.6439 2.5629 50.5366 2.67021L47.7082 -0.158216C47.0747 0.475255 46.8344 1.27549 46.8344 2.024H50.8344ZM50.5366 2.67021C50.4764 2.73042 50.3823 2.80129 50.2559 2.85335C50.1298 2.90525 50.0165 2.92 49.9384 2.92V-1.08C49.094 -1.08 48.3115 -0.761545 47.7082 -0.158212L50.5366 2.67021ZM49.9384 2.92H52.1944V-1.08H49.9384V2.92ZM52.1944 2.92C52.1183 2.92 51.9837 2.90584 51.8247 2.83631C51.6615 2.7649 51.5326 2.66112 51.4439 2.55758L54.4809 -0.0455816C53.874 -0.753644 53.0423 -1.08 52.1944 -1.08V2.92ZM51.6608 2.77451C51.5572 2.68576 51.4535 2.55686 51.3821 2.39364C51.3125 2.23471 51.2984 2.10004 51.2984 2.024H55.2984C55.2984 1.17607 54.972 0.344395 54.264 -0.262515L51.6608 2.77451ZM51.2984 2.024V33.896H55.2984V2.024H51.2984ZM51.2984 33.896C51.2984 33.8179 51.3131 33.7045 51.365 33.5785C51.4171 33.4521 51.488 33.358 51.5482 33.2978L54.3766 36.1262C54.9799 35.5229 55.2984 34.7404 55.2984 33.896H51.2984ZM51.5482 33.2978C51.6555 33.1905 51.7867 33.1069 51.9241 33.0553C52.0554 33.0061 52.1546 33 52.1944 33V37C52.9429 37 53.7431 36.7597 54.3766 36.1262L51.5482 33.2978ZM52.1944 33H49.9384V37H52.1944V33ZM63.0503 34.52L63.9101 32.7143L63.9101 32.7143L63.0503 34.52ZM59.8343 31.928L58.1848 33.0591L58.2034 33.0862L58.2229 33.1128L59.8343 31.928ZM61.2743 23.048L62.5021 24.6267L62.5061 24.6236L61.2743 23.048ZM68.3783 20.36L68.6551 22.3407L68.6574 22.3404L68.3783 20.36ZM75.5303 19.352L75.8094 21.3324L77.5303 21.0899V19.352H75.5303ZM66.4583 13.976L67.5398 15.6584L67.5607 15.6449L67.5813 15.631L66.4583 13.976ZM64.4423 16.04L62.6972 15.0628L62.6047 15.228L62.5449 15.4075L64.4423 16.04ZM64.0583 16.664L62.8089 15.1023L62.7224 15.1715L62.644 15.2498L64.0583 16.664ZM60.6503 16.568L59.1317 17.8696L59.2319 17.9864L59.3487 18.0865L60.6503 16.568ZM60.3623 15.8L58.364 15.7167L58.3623 15.7584V15.8H60.3623ZM61.4183 13.208L59.7872 12.0505L59.7798 12.0611L61.4183 13.208ZM64.6343 10.664L65.5127 12.4608L65.5286 12.453L65.5445 12.4449L64.6343 10.664ZM77.6903 12.104L76.2217 13.4617L76.2282 13.4687L76.2347 13.4756L77.6903 12.104ZM79.7063 34.712L81.1205 36.1262L81.1205 36.1262L79.7063 34.712ZM75.9143 34.712L74.3957 36.0136L74.4959 36.1304L74.6127 36.2305L75.9143 34.712ZM75.6263 31.832H77.6263V25.3926L73.9782 30.6989L75.6263 31.832ZM72.5543 34.424L71.6262 32.6523L71.6262 32.6523L72.5543 34.424ZM73.5143 29.864L72.0835 28.4665L72.0831 28.4669L73.5143 29.864ZM75.5303 22.616H77.5303V20.3015L75.2402 20.6371L75.5303 22.616ZM69.9623 23.432L70.2412 25.4125L70.2523 25.4109L69.9623 23.432ZM64.8263 25.064L65.903 26.7494L65.9194 26.7389L65.9357 26.7281L64.8263 25.064ZM64.6823 30.872L63.5728 32.5361L63.5906 32.5479L63.6085 32.5593L64.6823 30.872ZM67.4183 33.48C66.1315 33.48 64.9712 33.2196 63.9101 32.7143L62.1904 36.3257C63.8173 37.1004 65.569 37.48 67.4183 37.48V33.48ZM63.9101 32.7143C62.8329 32.2013 62.0307 31.539 61.4456 30.7432L58.2229 33.1128C59.2378 34.493 60.5796 35.5587 62.1904 36.3257L63.9101 32.7143ZM61.4837 30.7969C60.9415 30.0062 60.6823 29.1678 60.6823 28.232H56.6823C56.6823 29.9842 57.191 31.6098 58.1848 33.0591L61.4837 30.7969ZM60.6823 28.232C60.6823 26.763 61.2406 25.6079 62.5021 24.6267L60.0464 21.4693C57.8519 23.1761 56.6823 25.477 56.6823 28.232H60.6823ZM62.5061 24.6236C63.9094 23.5265 65.9116 22.7242 68.6551 22.3407L68.1014 18.3793C64.8929 18.8278 62.1591 19.8175 60.0424 21.4724L62.5061 24.6236ZM68.6574 22.3404L75.8094 21.3324L75.2511 17.3716L68.0991 18.3796L68.6574 22.3404ZM77.5303 19.352V17.96H73.5303V19.352H77.5303ZM77.5303 17.96C77.5303 15.9429 76.9391 14.0869 75.4405 12.7805C73.9944 11.5197 72.0323 11.064 69.9143 11.064V15.064C71.5402 15.064 72.3861 15.4243 72.812 15.7955C73.1854 16.1211 73.5303 16.7131 73.5303 17.96H77.5303ZM69.9143 11.064C68.2249 11.064 66.6491 11.4295 65.3352 12.321L67.5813 15.631C68.0594 15.3065 68.7876 15.064 69.9143 15.064V11.064ZM65.3767 12.2936C64.2499 13.018 63.3294 13.9339 62.6972 15.0628L66.1873 17.0172C66.4511 16.5461 66.8746 16.086 67.5398 15.6584L65.3767 12.2936ZM62.5449 15.4075C62.5342 15.4396 62.5379 15.4175 62.5709 15.3638C62.605 15.3084 62.6784 15.2067 62.8089 15.1023L65.3076 18.2257C65.8809 17.7672 66.1769 17.1606 66.3396 16.6725L62.5449 15.4075ZM62.644 15.2498C63.0234 14.8704 63.43 14.856 63.4823 14.856V18.856C64.0465 18.856 64.8371 18.7136 65.4725 18.0782L62.644 15.2498ZM63.4823 14.856H61.4183V18.856H63.4823V14.856ZM61.4183 14.856C61.5011 14.856 61.6041 14.8707 61.7125 14.9113C61.8202 14.9517 61.9004 15.0054 61.9518 15.0495L59.3487 18.0865C59.9255 18.5809 60.6402 18.856 61.4183 18.856V14.856ZM62.1688 15.2664C62.2129 15.3179 62.2665 15.3981 62.3069 15.5058C62.3475 15.6141 62.3623 15.7171 62.3623 15.8H58.3623C58.3623 16.578 58.6373 17.2928 59.1317 17.8696L62.1688 15.2664ZM62.3605 15.8833C62.3703 15.6478 62.4971 15.1544 63.0567 14.3549L59.7798 12.0611C58.9954 13.1816 58.4182 14.4162 58.364 15.7167L62.3605 15.8833ZM63.0493 14.3655C63.508 13.7191 64.2808 13.063 65.5127 12.4608L63.7558 8.86723C62.1077 9.673 60.7365 10.7129 59.7872 12.0505L63.0493 14.3655ZM65.5445 12.4449C66.6299 11.8901 68.0733 11.56 69.9623 11.56V7.56C67.6272 7.56 65.5186 7.96589 63.724 8.88313L65.5445 12.4449ZM69.9623 11.56C73.2921 11.56 75.1982 12.3547 76.2217 13.4617L79.1588 10.7463C77.0463 8.46133 73.8004 7.56 69.9623 7.56V11.56ZM76.2347 13.4756C77.4195 14.733 78.0423 16.3069 78.0423 18.344H82.0423C82.0423 15.3891 81.097 12.803 79.1458 10.7324L76.2347 13.4756ZM78.0423 18.344V33.896H82.0423V18.344H78.0423ZM78.0423 33.896C78.0423 33.8179 78.057 33.7045 78.1089 33.5785C78.161 33.4521 78.2318 33.358 78.292 33.2978L81.1205 36.1262C81.7238 35.5229 82.0423 34.7404 82.0423 33.896H78.0423ZM78.292 33.2978C78.3994 33.1905 78.5306 33.1069 78.668 33.0553C78.7993 33.0061 78.8985 33 78.9383 33V37C79.6868 37 80.487 36.7597 81.1205 36.1262L78.292 33.2978ZM78.9383 33H76.7303V37H78.9383V33ZM76.7303 33C76.7723 33 76.852 33.0068 76.9519 33.042C77.0541 33.0781 77.1447 33.1325 77.2158 33.1935L74.6127 36.2305C75.2309 36.7604 75.9764 37 76.7303 37V33ZM77.4328 33.4104C77.4937 33.4815 77.5482 33.5722 77.5842 33.6744C77.6195 33.7742 77.6263 33.8539 77.6263 33.896H73.6263C73.6263 34.6499 73.8658 35.3953 74.3957 36.0136L77.4328 33.4104ZM77.6263 33.896V31.832H73.6263V33.896H77.6263ZM73.9782 30.6989C73.4951 31.4016 72.7448 32.0664 71.6262 32.6523L73.4823 36.1957C75.0517 35.3736 76.3494 34.3104 77.2743 32.9651L73.9782 30.6989ZM71.6262 32.6523C70.6548 33.1612 69.2889 33.48 67.4183 33.48V37.48C69.7076 37.48 71.7657 37.0948 73.4823 36.1957L71.6262 32.6523ZM68.4263 33.88C70.9813 33.88 73.2147 33.0339 74.9454 31.2611L72.0831 28.4669C71.1898 29.3821 70.0312 29.88 68.4263 29.88V33.88ZM74.945 31.2615C76.7619 29.4014 77.5303 26.8642 77.5303 23.96H73.5303C73.5303 26.1757 72.9546 27.5746 72.0835 28.4665L74.945 31.2615ZM77.5303 23.96V22.616H73.5303V23.96H77.5303ZM75.2402 20.6371L69.6722 21.4531L70.2523 25.4109L75.8203 24.5949L75.2402 20.6371ZM69.6833 21.4515C67.2855 21.7893 65.2307 22.3907 63.7169 23.3999L65.9357 26.7281C66.7258 26.2013 68.095 25.7147 70.2412 25.4125L69.6833 21.4515ZM63.7495 23.3786C62.1471 24.4023 61.0983 25.9255 61.0983 27.896H65.0983C65.0983 27.5625 65.2014 27.1977 65.903 26.7494L63.7495 23.3786ZM61.0983 27.896C61.0983 29.8378 61.9547 31.4574 63.5728 32.5361L65.7917 29.2079C65.2978 28.8786 65.0983 28.5142 65.0983 27.896H61.0983ZM63.6085 32.5593C65.0315 33.4648 66.6644 33.88 68.4263 33.88V29.88C67.3081 29.88 66.445 29.6232 65.756 29.1847L63.6085 32.5593ZM87.2306 34.712L85.7121 36.0136L85.8122 36.1304L85.929 36.2305L87.2306 34.712ZM87.2306 10.376L88.6448 11.7902L88.6448 11.7902L87.2306 10.376ZM91.0706 10.376L89.5521 11.6776L89.6522 11.7944L89.769 11.8945L91.0706 10.376ZM91.4066 13.256H89.4066V19.0498L92.9807 14.4898L91.4066 13.256ZM94.6706 10.52L93.7762 8.73114L93.7671 8.73571L93.758 8.74036L94.6706 10.52ZM106.575 12.536L105.054 13.8356L105.066 13.8487L105.077 13.8617L106.575 12.536ZM108.831 34.712L110.245 36.1262L110.245 36.1262L108.831 34.712ZM104.847 34.712L103.328 36.0136L103.428 36.1304L103.545 36.2305L104.847 34.712ZM102.879 15.32L101.371 16.6343L101.381 16.6451L101.39 16.6558L102.879 15.32ZM93.3266 15.368L94.7776 16.7445L94.7862 16.7354L94.7948 16.7261L93.3266 15.368ZM91.2146 34.712L89.8004 33.2978L89.8004 33.2978L91.2146 34.712ZM88.0466 33C88.0887 33 88.1684 33.0068 88.2683 33.042C88.3705 33.0781 88.4611 33.1325 88.5322 33.1935L85.929 36.2305C86.5473 36.7604 87.2928 37 88.0466 37V33ZM88.7491 33.4104C88.8101 33.4815 88.8645 33.5722 88.9006 33.6744C88.9359 33.7742 88.9426 33.8539 88.9426 33.896H84.9426C84.9426 34.6498 85.1822 35.3953 85.7121 36.0136L88.7491 33.4104ZM88.9426 33.896V11.144H84.9426V33.896H88.9426ZM88.9426 11.144C88.9426 11.1837 88.9365 11.283 88.8873 11.4142C88.8358 11.5517 88.7522 11.6829 88.6448 11.7902L85.8164 8.96178C85.1829 9.59526 84.9426 10.3955 84.9426 11.144H88.9426ZM88.6448 11.7902C88.5846 11.8504 88.4906 11.9213 88.3641 11.9734C88.2381 12.0253 88.1248 12.04 88.0466 12.04V8.04C87.2022 8.04 86.4197 8.35846 85.8164 8.96179L88.6448 11.7902ZM88.0466 12.04H90.3026V8.04H88.0466V12.04ZM90.3026 12.04C90.2266 12.04 90.0919 12.0258 89.933 11.9563C89.7698 11.8849 89.6409 11.7811 89.5521 11.6776L92.5891 9.07442C91.9822 8.36636 91.1506 8.04 90.3026 8.04V12.04ZM89.769 11.8945C89.6655 11.8058 89.5617 11.6769 89.4903 11.5136C89.4208 11.3547 89.4066 11.22 89.4066 11.144H93.4066C93.4066 10.2961 93.0803 9.4644 92.3722 8.85748L89.769 11.8945ZM89.4066 11.144V13.256H93.4066V11.144H89.4066ZM92.9807 14.4898C93.7435 13.5166 94.611 12.7982 95.5833 12.2996L93.758 8.74036C92.2343 9.52176 90.9258 10.6274 89.8325 12.0222L92.9807 14.4898ZM95.5651 12.3089C96.4932 11.8448 97.75 11.56 99.4226 11.56V7.56C97.3193 7.56 95.408 7.91523 93.7762 8.73114L95.5651 12.3089ZM99.4226 11.56C102.024 11.56 103.807 12.3762 105.054 13.8356L108.095 11.2364C105.95 8.7278 102.965 7.56 99.4226 7.56V11.56ZM105.077 13.8617C106.406 15.3625 107.167 17.4568 107.167 20.36H111.167C111.167 16.7352 110.2 13.6135 108.072 11.2103L105.077 13.8617ZM107.167 20.36V33.896H111.167V20.36H107.167ZM107.167 33.896C107.167 33.8179 107.181 33.7045 107.233 33.5785C107.285 33.4521 107.356 33.358 107.416 33.2978L110.245 36.1262C110.848 35.5229 111.167 34.7404 111.167 33.896H107.167ZM107.416 33.2978C107.524 33.1905 107.655 33.1069 107.792 33.0553C107.924 33.0061 108.023 33 108.063 33V37C108.811 37 109.611 36.7597 110.245 36.1262L107.416 33.2978ZM108.063 33H105.663V37H108.063V33ZM105.663 33C105.705 33 105.784 33.0068 105.884 33.042C105.986 33.0781 106.077 33.1325 106.148 33.1935L103.545 36.2305C104.163 36.7604 104.909 37 105.663 37V33ZM106.365 33.4104C106.426 33.4815 106.481 33.5722 106.517 33.6744C106.552 33.7742 106.559 33.8539 106.559 33.896H102.559C102.559 34.6499 102.798 35.3953 103.328 36.0136L106.365 33.4104ZM106.559 33.896V20.6H102.559V33.896H106.559ZM106.559 20.6C106.559 18.0118 105.918 15.7124 104.367 13.9842L101.39 16.6558C102.079 17.4236 102.559 18.6442 102.559 20.6H106.559ZM104.386 14.0057C102.825 12.2146 100.625 11.448 98.1266 11.448V15.448C99.7884 15.448 100.757 15.9294 101.371 16.6343L104.386 14.0057ZM98.1266 11.448C95.6486 11.448 93.4813 12.2555 91.8584 14.0099L94.7948 16.7261C95.54 15.9205 96.5726 15.448 98.1266 15.448V11.448ZM91.8757 13.9915C90.2426 15.7128 89.5506 18.0077 89.5506 20.6H93.5506C93.5506 18.7123 94.0426 17.5192 94.7776 16.7445L91.8757 13.9915ZM89.5506 20.6V33.896H93.5506V20.6H89.5506ZM89.5506 33.896C89.5506 33.8179 89.5654 33.7045 89.6173 33.5785C89.6693 33.4521 89.7402 33.358 89.8004 33.2978L92.6288 36.1262C93.2322 35.5229 93.5506 34.7404 93.5506 33.896H89.5506ZM89.8004 33.2978C89.9077 33.1905 90.039 33.1069 90.1764 33.0553C90.3076 33.0061 90.4069 33 90.4466 33V37C91.1951 37 91.9954 36.7597 92.6288 36.1262L89.8004 33.2978ZM90.4466 33H88.0466V37H90.4466V33ZM130.932 34.712L129.413 36.0136L129.514 36.1304L129.63 36.2305L130.932 34.712ZM130.644 26.984H132.644V24.984H130.644V26.984ZM114.276 26.696L112.757 27.9976L112.858 28.1144L112.974 28.2145L114.276 26.696ZM114.516 22.52L116.129 23.7027L116.138 23.6899L116.147 23.677L114.516 22.52ZM128.916 2.216L130.547 3.373L130.581 3.32544L130.612 3.27599L128.916 2.216ZM129.636 1.64L130.379 3.49695L130.456 3.46606L130.53 3.42885L129.636 1.64ZM134.916 1.736L133.397 3.03758L133.498 3.15439L133.614 3.25452L134.916 1.736ZM135.252 22.808H133.252V24.808H135.252V22.808ZM140.388 23.144L138.974 24.5582L139.028 24.6125L139.086 24.6625L140.388 23.144ZM140.388 26.696L141.802 28.1102L141.802 28.1102L140.388 26.696ZM135.252 26.984V24.984H133.252V26.984H135.252ZM134.916 34.712L133.502 33.2978L133.502 33.2978L134.916 34.712ZM130.692 22.904V24.904H132.692V22.904H130.692ZM130.692 6.44H132.692V0.114674L129.056 5.29019L130.692 6.44ZM119.124 22.904L117.488 21.7542L115.274 24.904H119.124V22.904ZM131.748 33C131.79 33 131.87 33.0068 131.97 33.042C132.072 33.0781 132.162 33.1325 132.234 33.1935L129.63 36.2305C130.249 36.7604 130.994 37 131.748 37V33ZM132.451 33.4104C132.511 33.4815 132.566 33.5722 132.602 33.6744C132.637 33.7743 132.644 33.8539 132.644 33.896H128.644C128.644 34.6498 128.884 35.3953 129.413 36.0136L132.451 33.4104ZM132.644 33.896V26.984H128.644V33.896H132.644ZM130.644 24.984H115.092V28.984H130.644V24.984ZM115.092 24.984C115.134 24.984 115.214 24.9908 115.314 25.026C115.416 25.0621 115.506 25.1165 115.578 25.1775L112.974 28.2145C113.593 28.7444 114.338 28.984 115.092 28.984V24.984ZM115.795 25.3944C115.855 25.4655 115.91 25.5562 115.946 25.6584C115.981 25.7582 115.988 25.8379 115.988 25.88H111.988C111.988 26.6338 112.228 27.3793 112.757 27.9976L115.795 25.3944ZM115.988 25.88V23.96H111.988V25.88H115.988ZM115.988 23.96C115.988 23.9698 115.985 23.9624 115.998 23.9285C116.012 23.891 116.046 23.8155 116.129 23.7027L112.903 21.3373C112.361 22.0767 111.988 22.9615 111.988 23.96H115.988ZM116.147 23.677L130.547 3.373L127.285 1.059L112.885 21.363L116.147 23.677ZM130.612 3.27599C130.57 3.34271 130.518 3.39945 130.465 3.44173C130.415 3.48236 130.379 3.4967 130.379 3.49695L128.893 -0.216956C128.237 0.0455012 127.636 0.490179 127.22 1.156L130.612 3.27599ZM130.53 3.42885C130.553 3.41775 130.595 3.4 130.692 3.4V-0.600002C130.021 -0.600002 129.359 -0.45776 128.742 -0.148857L130.53 3.42885ZM130.692 3.4H134.148V-0.600002H130.692V3.4ZM134.148 3.4C134.072 3.4 133.937 3.38584 133.778 3.31631C133.615 3.2449 133.486 3.14112 133.397 3.03758L136.435 0.434422C135.828 -0.273644 134.996 -0.600002 134.148 -0.600002V3.4ZM133.614 3.25452C133.511 3.16576 133.407 3.03686 133.336 2.87364C133.266 2.71471 133.252 2.58004 133.252 2.504H137.252C137.252 1.65607 136.926 0.82439 136.218 0.217481L133.614 3.25452ZM133.252 2.504V22.808H137.252V2.504H133.252ZM135.252 24.808H139.572V20.808H135.252V24.808ZM139.572 24.808C139.494 24.808 139.381 24.7933 139.255 24.7414C139.128 24.6893 139.034 24.6184 138.974 24.5582L141.802 21.7298C141.199 21.1265 140.416 20.808 139.572 20.808V24.808ZM139.086 24.6625C138.983 24.5738 138.879 24.4449 138.808 24.2816C138.738 24.1227 138.724 23.988 138.724 23.912H142.724C142.724 23.0641 142.398 22.2324 141.69 21.6255L139.086 24.6625ZM138.724 23.912V25.88H142.724V23.912H138.724ZM138.724 25.88C138.724 25.8019 138.739 25.6885 138.791 25.5625C138.843 25.4361 138.914 25.342 138.974 25.2818L141.802 28.1102C142.406 27.5069 142.724 26.7244 142.724 25.88H138.724ZM138.974 25.2818C139.081 25.1745 139.212 25.0909 139.35 25.0393C139.481 24.9901 139.58 24.984 139.62 24.984V28.984C140.369 28.984 141.169 28.7437 141.802 28.1102L138.974 25.2818ZM139.62 24.984H135.252V28.984H139.62V24.984ZM133.252 26.984V33.896H137.252V26.984H133.252ZM133.252 33.896C133.252 33.8179 133.267 33.7045 133.319 33.5785C133.371 33.4521 133.442 33.358 133.502 33.2978L136.33 36.1262C136.934 35.5229 137.252 34.7404 137.252 33.896H133.252ZM133.502 33.2978C133.609 33.1905 133.74 33.1069 133.878 33.0553C134.009 33.0061 134.108 33 134.148 33V37C134.897 37 135.697 36.7597 136.33 36.1262L133.502 33.2978ZM134.148 33H131.748V37H134.148V33ZM132.692 22.904V6.44H128.692V22.904H132.692ZM129.056 5.29019L117.488 21.7542L120.76 24.0538L132.328 7.5898L129.056 5.29019ZM119.124 24.904H130.692V20.904H119.124V24.904ZM148.121 32.552L146.588 33.8372L146.593 33.8434L146.598 33.8495L148.121 32.552ZM145.913 10.376L147.327 11.7902L147.327 11.7902L145.913 10.376ZM149.897 10.376L148.378 11.6776L148.478 11.7944L148.595 11.8945L149.897 10.376ZM161.273 29.72L162.723 31.0965L162.732 31.0874L162.741 31.0781L161.273 29.72ZM163.337 10.376L164.751 11.7902L164.751 11.7902L163.337 10.376ZM167.321 10.376L165.802 11.6776L165.852 11.7359L165.906 11.7902L167.321 10.376ZM167.321 34.712L168.735 36.1262L168.789 36.0719L168.839 36.0136L167.321 34.712ZM163.481 34.712L161.962 36.0136L162.062 36.1304L162.179 36.2305L163.481 34.712ZM163.193 31.784H165.193V25.6982L161.582 30.5976L163.193 31.784ZM159.929 34.568L160.787 36.3746L160.805 36.3659L160.823 36.3569L159.929 34.568ZM155.177 33.48C152.603 33.48 150.855 32.6771 149.643 31.2545L146.598 33.8495C148.714 36.3309 151.67 37.48 155.177 37.48V33.48ZM149.653 31.2668C148.363 29.7288 147.625 27.5997 147.625 24.68H143.625C143.625 28.2883 144.55 31.4072 146.588 33.8372L149.653 31.2668ZM147.625 24.68V11.144H143.625V24.68H147.625ZM147.625 11.144C147.625 11.1837 147.618 11.283 147.569 11.4142C147.518 11.5517 147.434 11.6829 147.327 11.7902L144.498 8.96178C143.865 9.59526 143.625 10.3955 143.625 11.144H147.625ZM147.327 11.7902C147.267 11.8504 147.172 11.9213 147.046 11.9734C146.92 12.0253 146.807 12.04 146.729 12.04V8.04C145.884 8.04 145.102 8.35845 144.498 8.96179L147.327 11.7902ZM146.729 12.04H149.129V8.04H146.729V12.04ZM149.129 12.04C149.052 12.04 148.918 12.0258 148.759 11.9563C148.596 11.8849 148.467 11.7811 148.378 11.6776L151.415 9.07442C150.808 8.36636 149.976 8.04 149.129 8.04V12.04ZM148.595 11.8945C148.491 11.8058 148.388 11.6769 148.316 11.5136C148.247 11.3547 148.233 11.22 148.233 11.144H152.233C152.233 10.2961 151.906 9.4644 151.198 8.85748L148.595 11.8945ZM148.233 11.144V24.44H152.233V11.144H148.233ZM148.233 24.44C148.233 27.0704 148.8 29.4167 150.285 31.1189C151.816 32.8732 154.008 33.592 156.473 33.592V29.592C154.777 29.592 153.849 29.1188 153.3 28.4891C152.705 27.8073 152.233 26.5776 152.233 24.44H148.233ZM156.473 33.592C158.935 33.592 161.097 32.8113 162.723 31.0965L159.822 28.3435C159.08 29.1247 158.042 29.592 156.473 29.592V33.592ZM162.741 31.0781C164.355 29.3324 165.049 27.0352 165.049 24.44H161.049C161.049 26.3248 160.558 27.5476 159.804 28.3619L162.741 31.0781ZM165.049 24.44V11.144H161.049V24.44H165.049ZM165.049 11.144C165.049 11.1837 165.042 11.283 164.993 11.4142C164.942 11.5517 164.858 11.6829 164.751 11.7902L161.922 8.96178C161.289 9.59525 161.049 10.3955 161.049 11.144H165.049ZM164.751 11.7902C164.691 11.8504 164.596 11.9213 164.47 11.9734C164.344 12.0253 164.231 12.04 164.153 12.04V8.04C163.308 8.04 162.526 8.35846 161.922 8.96179L164.751 11.7902ZM164.153 12.04H166.552V8.04H164.153V12.04ZM166.552 12.04C166.476 12.04 166.342 12.0258 166.183 11.9563C166.02 11.8849 165.891 11.7811 165.802 11.6776L168.839 9.07442C168.232 8.36635 167.4 8.04 166.552 8.04V12.04ZM165.906 11.7902C165.799 11.6829 165.715 11.5517 165.664 11.4142C165.615 11.283 165.609 11.1837 165.609 11.144H169.609C169.609 10.3955 169.368 9.59526 168.735 8.96179L165.906 11.7902ZM165.609 11.144V33.896H169.609V11.144H165.609ZM165.609 33.896C165.609 33.8539 165.615 33.7743 165.651 33.6744C165.687 33.5722 165.741 33.4815 165.802 33.4104L168.839 36.0136C169.369 35.3953 169.609 34.6498 169.609 33.896H165.609ZM165.906 33.2978C166.014 33.1905 166.145 33.1069 166.282 33.0553C166.414 33.0061 166.513 33 166.552 33V37C167.301 37 168.101 36.7597 168.735 36.1262L165.906 33.2978ZM166.552 33H164.297V37H166.552V33ZM164.297 33C164.339 33 164.418 33.0068 164.518 33.042C164.62 33.0781 164.711 33.1325 164.782 33.1935L162.179 36.2305C162.797 36.7604 163.543 37 164.297 37V33ZM164.999 33.4104C165.06 33.4815 165.114 33.5722 165.15 33.6744C165.186 33.7743 165.193 33.8539 165.193 33.896H161.193C161.193 34.6498 161.432 35.3953 161.962 36.0136L164.999 33.4104ZM165.193 33.896V31.784H161.193V33.896H165.193ZM161.582 30.5976C160.863 31.5736 160.016 32.2884 159.034 32.7791L160.823 36.3569C162.401 35.5676 163.73 34.4264 164.803 32.9704L161.582 30.5976ZM159.07 32.7614C158.132 33.2071 156.862 33.48 155.177 33.48V37.48C157.267 37.48 159.165 37.1449 160.787 36.3746L159.07 32.7614Z" fill="black"/>
</g>
<defs>
<filter id="filter0_b_1_3" x="-3.136" y="-3.08" width="174.745" height="42.56" filterUnits="userSpaceOnUse" color-interpolation-filters="sRGB">
<feFlood flood-opacity="0" result="BackgroundImageFix"/>
<feGaussianBlur in="BackgroundImage" stdDeviation="2"/>
<feComposite in2="SourceAlpha" operator="in" result="effect1_backgroundBlur_1_3"/>
<feBlend mode="normal" in="SourceGraphic" in2="effect1_backgroundBlur_1_3" result="shape"/>
</filter>
</defs>
</svg>
