<svg width="44" height="44" viewBox="0 0 44 44" fill="none" xmlns="http://www.w3.org/2000/svg">
<path d="M36.3687 29.062C35.8454 30.2811 35.2035 31.4447 34.4524 32.5356C33.7438 33.6317 32.9158 34.644 31.9838 35.5536C31.1397 36.4078 30.0097 36.9116 28.8162 36.9658C27.8041 36.9182 26.8099 36.6786 25.8854 36.2597C24.8874 35.8236 23.8161 35.5839 22.7291 35.5536C21.6125 35.5796 20.5109 35.8192 19.4827 36.2597C18.5978 36.6612 17.6531 36.9113 16.6871 37C16.0773 36.9933 15.4752 36.8616 14.9172 36.613C14.3591 36.3644 13.8568 36.004 13.4407 35.5536C12.4686 34.6131 11.6028 33.5665 10.8593 32.4331C9.69697 30.7555 8.77834 28.9185 8.13135 26.9779C7.39833 24.8812 7.01733 22.6756 7.00411 20.4521C6.94726 18.2685 7.48121 16.1107 8.54843 14.211C9.32289 12.8384 10.4329 11.6895 11.7723 10.8741C13.1042 10.0755 14.62 9.64353 16.1686 9.62132C17.3318 9.6957 18.4746 9.96512 19.5503 10.4185C20.4063 10.8014 21.3083 11.0694 22.2331 11.2158C23.2573 11.0065 24.2581 10.6936 25.2203 10.2819C26.5079 9.75551 27.8902 9.50723 29.2784 9.55299C30.6031 9.58418 31.9027 9.92419 33.076 10.5465C34.2492 11.1688 35.2642 12.0565 36.0418 13.1405C34.8176 13.7958 33.7974 14.7816 33.0949 15.988C32.3923 17.1945 32.035 18.5743 32.0627 19.9737C32.0527 21.0452 32.2675 22.1067 32.6931 23.0882C33.1186 24.0697 33.7451 24.949 34.5313 25.6681C35.248 26.36 36.0849 26.9121 37 27.2967C36.7971 27.9687 36.5942 28.5267 36.3687 29.062ZM29.4926 1.72888C29.4671 3.59003 28.7742 5.37864 27.5424 6.76273C26.9091 7.63441 26.0779 8.33971 25.1187 8.81931C24.1595 9.29892 23.1003 9.53881 22.0302 9.51882C22.0183 9.29121 22.0183 9.06311 22.0302 8.8355C22.077 6.94692 22.7976 5.13902 24.0593 3.7447C24.7578 2.93885 25.6136 2.28747 26.573 1.83138C27.4712 1.3646 28.452 1.08204 29.4588 1C29.4588 1.25055 29.4588 1.48972 29.4588 1.72888H29.4926Z" fill="#6A6F73"/>
</svg>
