<svg width="226 " height="37" viewBox="0 0 226 37" fill="none" xmlns="http://www.w3.org/2000/svg">
<g filter="url(#filter0_i_95_3)">
<path d="M1.56 36C1.24 36 0.952 35.888 0.696 35.664C0.472 35.408 0.36 35.12 0.36 34.8V3.6C0.36 3.248 0.472 2.96 0.696 2.736C0.952 2.512 1.24 2.4 1.56 2.4H14.04C18.744 2.4 22.392 3.52 24.984 5.76C27.576 8 28.936 11.248 29.064 15.504C29.096 16.432 29.112 17.664 29.112 19.2C29.112 20.736 29.096 21.952 29.064 22.848C28.904 27.296 27.576 30.608 25.08 32.784C22.616 34.928 19.016 36 14.28 36H1.56ZM14.04 29.088C16.152 29.088 17.704 28.592 18.696 27.6C19.688 26.576 20.216 24.96 20.28 22.752C20.344 21.824 20.376 20.624 20.376 19.152C20.376 17.68 20.344 16.496 20.28 15.6C20.216 13.456 19.64 11.872 18.552 10.848C17.496 9.824 15.912 9.312 13.8 9.312H9V29.088H14.04ZM35.3434 7.44C34.9914 7.44 34.7034 7.328 34.4794 7.104C34.2554 6.88 34.1434 6.592 34.1434 6.24V1.92C34.1434 1.568 34.2554 1.28 34.4794 1.056C34.7034 0.831999 34.9914 0.719999 35.3434 0.719999H41.1034C41.4554 0.719999 41.7434 0.831999 41.9674 1.056C42.1914 1.28 42.3034 1.568 42.3034 1.92V6.24C42.3034 6.592 42.1914 6.88 41.9674 7.104C41.7434 7.328 41.4554 7.44 41.1034 7.44H35.3434ZM35.3914 36C35.0394 36 34.7514 35.888 34.5274 35.664C34.3034 35.44 34.1914 35.152 34.1914 34.8V12.24C34.1914 11.888 34.3034 11.6 34.5274 11.376C34.7514 11.152 35.0394 11.04 35.3914 11.04H41.0554C41.4074 11.04 41.6954 11.152 41.9194 11.376C42.1434 11.6 42.2554 11.888 42.2554 12.24V34.8C42.2554 35.12 42.1434 35.408 41.9194 35.664C41.6954 35.888 41.4074 36 41.0554 36H35.3914ZM56.8058 36C56.3578 36 56.0058 35.904 55.7498 35.712C55.5258 35.488 55.3338 35.184 55.1738 34.8L46.1018 12.528L46.0058 12.096C46.0058 11.808 46.1018 11.568 46.2938 11.376C46.5178 11.152 46.7898 11.04 47.1098 11.04H52.5338C53.2378 11.04 53.7018 11.376 53.9258 12.048L59.3498 26.784L64.8218 12.048C65.0458 11.376 65.5098 11.04 66.2138 11.04H71.6378C71.9258 11.04 72.1818 11.152 72.4058 11.376C72.6298 11.568 72.7418 11.808 72.7418 12.096L72.6458 12.528L63.5738 34.8C63.4138 35.184 63.2058 35.488 62.9498 35.712C62.6938 35.904 62.3418 36 61.8938 36H56.8058Z" fill="#FF0000"/>
<path d="M86.5526 36C86.2326 36 85.9766 35.904 85.7846 35.712C85.5926 35.52 85.4966 35.264 85.4966 34.944V5.28H75.9926C75.6726 5.28 75.4166 5.184 75.2246 4.992C75.0326 4.8 74.9366 4.544 74.9366 4.224V3.504C74.9366 3.184 75.0326 2.928 75.2246 2.736C75.4166 2.512 75.6726 2.4 75.9926 2.4H97.9766C98.3286 2.4 98.6006 2.496 98.7926 2.688C98.9846 2.88 99.0806 3.152 99.0806 3.504V4.224C99.0806 4.544 98.9686 4.8 98.7446 4.992C98.5526 5.184 98.2966 5.28 97.9766 5.28H88.5206V34.944C88.5206 35.264 88.4086 35.52 88.1846 35.712C87.9926 35.904 87.7366 36 87.4166 36H86.5526ZM106.467 36.48C104.931 36.48 103.507 36.16 102.195 35.52C100.883 34.88 99.8274 34.016 99.0274 32.928C98.2594 31.84 97.8754 30.64 97.8754 29.328C97.8754 27.216 98.7234 25.488 100.419 24.144C102.147 22.8 104.467 21.936 107.379 21.552L114.963 20.496V18.816C114.963 17.056 114.419 15.712 113.331 14.784C112.275 13.824 110.643 13.344 108.435 13.344C106.803 13.344 105.459 13.664 104.403 14.304C103.379 14.944 102.723 15.712 102.435 16.608C102.307 16.992 102.147 17.264 101.955 17.424C101.795 17.552 101.571 17.616 101.283 17.616H100.611C100.323 17.616 100.067 17.52 99.8434 17.328C99.6514 17.104 99.5554 16.848 99.5554 16.56C99.5554 15.856 99.8754 15.04 100.515 14.112C101.155 13.152 102.147 12.32 103.491 11.616C104.835 10.912 106.483 10.56 108.435 10.56C111.859 10.56 114.291 11.376 115.731 13.008C117.171 14.64 117.891 16.624 117.891 18.96V34.944C117.891 35.264 117.795 35.52 117.603 35.712C117.411 35.904 117.155 36 116.835 36H116.019C115.699 36 115.443 35.904 115.251 35.712C115.059 35.52 114.963 35.264 114.963 34.944V32.688C114.259 33.744 113.219 34.64 111.843 35.376C110.499 36.112 108.707 36.48 106.467 36.48ZM106.947 33.696C109.283 33.696 111.203 32.928 112.707 31.392C114.211 29.856 114.963 27.648 114.963 24.768V23.136L108.771 24C106.147 24.352 104.163 24.96 102.819 25.824C101.475 26.688 100.803 27.776 100.803 29.088C100.803 30.56 101.411 31.696 102.627 32.496C103.875 33.296 105.315 33.696 106.947 33.696ZM126.586 36C126.266 36 126.01 35.904 125.818 35.712C125.626 35.52 125.53 35.264 125.53 34.944V2.976C125.53 2.656 125.626 2.4 125.818 2.208C126.01 2.016 126.266 1.92 126.586 1.92H127.402C127.722 1.92 127.978 2.016 128.17 2.208C128.362 2.4 128.458 2.656 128.458 2.976V34.944C128.458 35.264 128.362 35.52 128.17 35.712C127.978 35.904 127.722 36 127.402 36H126.586ZM145.527 36.48C142.487 36.48 140.039 35.488 138.183 33.504C136.327 31.488 135.271 28.8 135.015 25.44L134.967 23.52L135.015 21.6C135.271 18.272 136.311 15.6 138.135 13.584C139.991 11.568 142.455 10.56 145.527 10.56C148.855 10.56 151.447 11.664 153.303 13.872C155.191 16.08 156.135 19.104 156.135 22.944V23.664C156.135 23.984 156.023 24.24 155.799 24.432C155.607 24.624 155.351 24.72 155.031 24.72H137.943V25.2C138.007 26.704 138.343 28.112 138.951 29.424C139.591 30.704 140.471 31.744 141.591 32.544C142.711 33.312 144.023 33.696 145.527 33.696C147.287 33.696 148.711 33.36 149.799 32.688C150.919 31.984 151.719 31.28 152.199 30.576C152.487 30.192 152.695 29.952 152.823 29.856C152.983 29.76 153.255 29.712 153.639 29.712H154.407C154.695 29.712 154.935 29.792 155.127 29.952C155.319 30.112 155.415 30.32 155.415 30.576C155.415 31.248 154.983 32.064 154.119 33.024C153.287 33.952 152.119 34.768 150.615 35.472C149.111 36.144 147.415 36.48 145.527 36.48ZM153.207 22.032V21.84C153.207 19.376 152.503 17.344 151.095 15.744C149.719 14.144 147.863 13.344 145.527 13.344C143.191 13.344 141.335 14.144 139.959 15.744C138.615 17.344 137.943 19.376 137.943 21.84V22.032H153.207ZM163.522 36C163.202 36 162.946 35.904 162.754 35.712C162.562 35.52 162.466 35.264 162.466 34.944V12.096C162.466 11.776 162.562 11.52 162.754 11.328C162.946 11.136 163.202 11.04 163.522 11.04H164.338C164.658 11.04 164.914 11.136 165.106 11.328C165.298 11.52 165.394 11.776 165.394 12.096V14.352C166.354 13.104 167.442 12.16 168.658 11.52C169.906 10.88 171.506 10.56 173.458 10.56C176.594 10.56 179.01 11.568 180.706 13.584C182.402 15.568 183.25 18.144 183.25 21.312V34.944C183.25 35.264 183.154 35.52 182.962 35.712C182.77 35.904 182.514 36 182.194 36H181.378C181.058 36 180.802 35.904 180.61 35.712C180.418 35.52 180.322 35.264 180.322 34.944V21.552C180.322 18.96 179.682 16.944 178.402 15.504C177.154 14.064 175.346 13.344 172.978 13.344C170.674 13.344 168.834 14.08 167.458 15.552C166.082 16.992 165.394 18.992 165.394 21.552V34.944C165.394 35.264 165.298 35.52 165.106 35.712C164.914 35.904 164.658 36 164.338 36H163.522ZM198.804 36C196.436 36 194.756 35.296 193.764 33.888C192.772 32.448 192.276 30.48 192.276 27.984V13.824H188.532C188.212 13.824 187.956 13.728 187.764 13.536C187.572 13.344 187.476 13.088 187.476 12.768V12.096C187.476 11.776 187.572 11.52 187.764 11.328C187.956 11.136 188.212 11.04 188.532 11.04H192.276V2.976C192.276 2.656 192.372 2.4 192.564 2.208C192.756 2.016 193.012 1.92 193.332 1.92H194.148C194.468 1.92 194.724 2.016 194.916 2.208C195.108 2.4 195.204 2.656 195.204 2.976V11.04H201.156C201.476 11.04 201.732 11.136 201.924 11.328C202.116 11.52 202.212 11.776 202.212 12.096V12.768C202.212 13.088 202.116 13.344 201.924 13.536C201.732 13.728 201.476 13.824 201.156 13.824H195.204V27.792C195.204 29.584 195.492 30.944 196.068 31.872C196.676 32.768 197.668 33.216 199.044 33.216H201.636C201.956 33.216 202.212 33.312 202.404 33.504C202.596 33.696 202.692 33.952 202.692 34.272V34.944C202.692 35.264 202.596 35.52 202.404 35.712C202.212 35.904 201.956 36 201.636 36H198.804ZM215.574 36.48C213.494 36.48 211.734 36.128 210.294 35.424C208.886 34.72 207.814 33.92 207.078 33.024C206.374 32.128 206.022 31.408 206.022 30.864C206.022 30.576 206.134 30.352 206.358 30.192C206.582 30 206.822 29.904 207.078 29.904H207.798C208.022 29.904 208.198 29.952 208.326 30.048C208.486 30.112 208.662 30.272 208.854 30.528C209.558 31.52 210.406 32.304 211.398 32.88C212.422 33.424 213.814 33.696 215.574 33.696C217.558 33.696 219.158 33.328 220.374 32.592C221.59 31.824 222.198 30.736 222.198 29.328C222.198 28.464 221.942 27.76 221.43 27.216C220.95 26.672 220.15 26.208 219.03 25.824C217.942 25.408 216.31 24.944 214.134 24.432C211.286 23.792 209.334 22.912 208.278 21.792C207.254 20.672 206.742 19.248 206.742 17.52C206.742 16.336 207.062 15.216 207.702 14.16C208.374 13.104 209.35 12.24 210.63 11.568C211.942 10.896 213.51 10.56 215.334 10.56C217.254 10.56 218.87 10.896 220.182 11.568C221.526 12.208 222.518 12.96 223.158 13.824C223.83 14.688 224.166 15.392 224.166 15.936C224.166 16.224 224.054 16.464 223.83 16.656C223.638 16.816 223.398 16.896 223.11 16.896H222.39C221.942 16.896 221.59 16.688 221.334 16.272C220.694 15.312 219.958 14.592 219.126 14.112C218.326 13.6 217.062 13.344 215.334 13.344C213.478 13.344 212.07 13.728 211.11 14.496C210.15 15.264 209.67 16.272 209.67 17.52C209.67 18.288 209.862 18.928 210.246 19.44C210.63 19.952 211.35 20.432 212.406 20.88C213.462 21.296 214.998 21.728 217.014 22.176C219.99 22.848 222.086 23.744 223.302 24.864C224.518 25.984 225.126 27.472 225.126 29.328C225.126 30.64 224.758 31.84 224.022 32.928C223.286 34.016 222.198 34.88 220.758 35.52C219.318 36.16 217.59 36.48 215.574 36.48Z" fill="black"/>
</g>
<defs>
<filter id="filter0_i_95_3" x="0.360107" y="0.719727" width="224.766" height="39.7607" filterUnits="userSpaceOnUse" color-interpolation-filters="sRGB">
<feFlood flood-opacity="0" result="BackgroundImageFix"/>
<feBlend mode="normal" in="SourceGraphic" in2="BackgroundImageFix" result="shape"/>
<feColorMatrix in="SourceAlpha" type="matrix" values="0 0 0 0 0 0 0 0 0 0 0 0 0 0 0 0 0 0 127 0" result="hardAlpha"/>
<feOffset dy="4"/>
<feGaussianBlur stdDeviation="2"/>
<feComposite in2="hardAlpha" operator="arithmetic" k2="-1" k3="1"/>
<feColorMatrix type="matrix" values="0 0 0 0 0 0 0 0 0 0 0 0 0 0 0 0 0 0 0.25 0"/>
<feBlend mode="normal" in2="shape" result="effect1_innerShadow_95_3"/>
</filter>
</defs>
</svg>
